<?xml version="1.0" encoding="UTF-8"?>
<svg id="Layer_2" data-name="Layer 2" xmlns="http://www.w3.org/2000/svg" xmlns:xlink="http://www.w3.org/1999/xlink" viewBox="0 0 398.83 288">
  <defs>
    <style>
      .cls-1 {
        fill: url(#linear-gradient-12);
      }

      .cls-1, .cls-2, .cls-3, .cls-4, .cls-5, .cls-6, .cls-7, .cls-8, .cls-9, .cls-10, .cls-11, .cls-12, .cls-13, .cls-14 {
        stroke-width: 0px;
      }

      .cls-2 {
        fill: url(#linear-gradient);
      }

      .cls-3 {
        fill: url(#linear-gradient-6);
      }

      .cls-4 {
        fill: url(#linear-gradient-11);
      }

      .cls-5 {
        fill: url(#linear-gradient-5);
      }

      .cls-6 {
        fill: url(#linear-gradient-13);
      }

      .cls-15 {
        opacity: .4;
      }

      .cls-7 {
        fill: url(#linear-gradient-14);
      }

      .cls-8 {
        fill: url(#linear-gradient-2);
      }

      .cls-9 {
        fill: url(#linear-gradient-7);
      }

      .cls-10 {
        fill: url(#linear-gradient-3);
      }

      .cls-11 {
        fill: url(#linear-gradient-9);
      }

      .cls-12 {
        fill: url(#linear-gradient-8);
      }

      .cls-13 {
        fill: url(#linear-gradient-10);
      }

      .cls-14 {
        fill: url(#linear-gradient-4);
      }
    </style>
    <linearGradient id="linear-gradient" x1="138.18" y1="16.06" x2="314.49" y2="200.31" gradientUnits="userSpaceOnUse">
      <stop offset=".24" stop-color="#fd2e54"/>
      <stop offset="1" stop-color="#001638"/>
    </linearGradient>
    <linearGradient id="linear-gradient-2" x1="94.71" y1="57.65" x2="271.02" y2="241.9" xlink:href="#linear-gradient"/>
    <linearGradient id="linear-gradient-3" x1="93.15" y1="59.14" x2="269.47" y2="243.39" xlink:href="#linear-gradient"/>
    <linearGradient id="linear-gradient-4" x1="92.86" y1="59.42" x2="269.17" y2="243.68" xlink:href="#linear-gradient"/>
    <linearGradient id="linear-gradient-5" x1="84.88" y1="67.06" x2="261.19" y2="251.31" xlink:href="#linear-gradient"/>
    <linearGradient id="linear-gradient-6" x1="77.14" y1="74.46" x2="253.46" y2="258.71" xlink:href="#linear-gradient"/>
    <linearGradient id="linear-gradient-7" x1="70.08" y1="81.22" x2="246.39" y2="265.47" xlink:href="#linear-gradient"/>
    <linearGradient id="linear-gradient-8" x1="135.4" y1="18.71" x2="311.71" y2="202.97" xlink:href="#linear-gradient"/>
    <linearGradient id="linear-gradient-9" x1="108.15" y1="44.79" x2="284.46" y2="229.04" xlink:href="#linear-gradient"/>
    <linearGradient id="linear-gradient-10" x1="73.98" y1="77.49" x2="250.29" y2="261.74" xlink:href="#linear-gradient"/>
    <linearGradient id="linear-gradient-11" x1="67.6" y1="83.59" x2="243.92" y2="267.84" xlink:href="#linear-gradient"/>
    <linearGradient id="linear-gradient-12" x1="70.39" y1="80.92" x2="246.7" y2="265.17" xlink:href="#linear-gradient"/>
    <linearGradient id="linear-gradient-13" x1="67.78" y1="83.42" x2="244.09" y2="267.67" xlink:href="#linear-gradient"/>
    <linearGradient id="linear-gradient-14" x1="60.35" y1="90.53" x2="236.67" y2="274.78" xlink:href="#linear-gradient"/>
  </defs>
  <g id="Layer_1-2" data-name="Layer 1">
    <g>
      <g>
        <path class="cls-2" d="M383.3,45.92c-2.73-11.14-5.31-22.49-7.67-33.72-.65-3.08-.87-6.43-1.11-9.97-.05-.74-.1-1.48-.15-2.22h-.9c.06.76.11,1.52.16,2.27.24,3.58.46,6.96,1.12,10.09,2.36,11.25,4.95,22.6,7.68,33.75.75,3.06,2.84,7.61,5.27,12.89,5.6,12.18,13.27,28.87,9.03,38.3-1.34,2.98-3.84,5.1-7.42,6.31-4.83,1.63-10.79-.11-16.55-1.79-3.78-1.1-7.35-2.14-10.6-2.28-14.9-.6-27.51.7-38.57,3.99-22.96,6.83-46.16,27.84-43.93,53.35.48,5.52,2.14,11.1,3.73,16.48,2.84,9.57,5.52,18.61,2.25,27.47-3.53,9.58-13,15.6-23.22,21.42l-115.56,65.75h1.76l114.25-65.01c10.37-5.9,19.98-12.02,23.61-21.87,3.36-9.12.52-18.72-2.24-28-1.59-5.35-3.23-10.88-3.7-16.32-2.19-25.05,20.67-45.72,43.3-52.45,10.95-3.26,23.47-4.55,38.27-3.95,3.14.13,6.65,1.16,10.38,2.24,5.9,1.72,12,3.5,17.11,1.78,3.83-1.29,6.51-3.57,7.95-6.78,4.39-9.78-3.36-26.66-9.03-38.99-2.41-5.24-4.49-9.76-5.21-12.74Z"/>
        <path class="cls-8" d="M350.72,47.05c-2.27-8.39-4.5-17.19-6.83-26.91-.6-2.5-.92-5.18-1.25-8.01-.49-4.13-.98-8.35-2.43-12.13h-.97c1.5,3.77,2.01,8.04,2.51,12.23.34,2.86.65,5.56,1.27,8.11,2.33,9.73,4.57,18.54,6.84,26.93.72,2.68,2.53,6.47,4.62,10.87,5.88,12.36,13.94,29.29,3.9,35.05-3.12,1.79-7.08,1.37-11.26.93-.96-.1-1.93-.2-2.9-.28-1.78-.14-3.23-.15-4.55-.04-8.42.72-19.96,1.7-30.4,4.67-4.23,1.19-8.25,2.76-11.95,4.65-15.73,8.03-25.98,20.13-27.43,32.38-.45,3.73-.13,7.49.18,11.12.55,6.49,1.07,12.63-2.39,18.7-3.95,6.89-12.28,11.38-19.78,15.04-13.96,6.82-32.03,16.16-47.94,27.9-4.33,3.22-8.14,6.71-11.81,10.09-2.88,2.65-5.86,5.38-9.08,7.97-2.93,2.37-6.31,4.47-9.57,6.49-2.76,1.71-5.62,3.49-8.18,5.41-2.4,1.8-4.48,3.78-6.5,5.69-4.17,3.95-8.11,7.69-14.49,9.83-5.72,1.92-11.34,4.16-17.67,7.06-4.52,2.07-9.02,4.37-13.79,6.81l-2.69,1.38c-9.23,4.71-16.85,7.16-23.98,7.73-7.22.57-14.65-.75-21.59-2.27l-1.6-.36c-6.4-1.43-12.45-2.79-18.56-2.25-3.91.34-7.64,1.43-11.26,2.49-4.46,1.3-9.11,2.65-14.07,2.6-6.51-.07-11.02-2.07-15.13-5.12v1.08c4.09,2.92,8.63,4.83,15.12,4.9,5.13.05,9.81-1.31,14.34-2.64,3.57-1.04,7.26-2.12,11.08-2.45,5.98-.52,11.95.82,18.28,2.23l1.6.36c7.02,1.54,14.53,2.88,21.87,2.29,7.25-.58,14.98-3.06,24.32-7.83l2.69-1.38c4.76-2.43,9.26-4.73,13.76-6.8,6.3-2.89,11.89-5.12,17.58-7.03,6.57-2.2,10.58-6,14.82-10.03,2-1.89,4.06-3.85,6.42-5.62,2.53-1.9,5.37-3.67,8.11-5.37,3.29-2.04,6.68-4.15,9.66-6.55,3.24-2.6,6.23-5.35,9.12-8.01,3.66-3.36,7.45-6.83,11.74-10.03,15.85-11.7,33.87-21.01,47.8-27.82,7.62-3.72,16.09-8.29,20.16-15.4,3.59-6.3,3.04-12.85,2.5-19.18-.3-3.59-.62-7.3-.18-10.95,1.41-11.96,11.49-23.82,26.95-31.71,3.65-1.86,7.61-3.41,11.78-4.59,10.35-2.94,21.84-3.92,30.22-4.64,1.27-.11,2.67-.1,4.4.04.96.07,1.92.18,2.87.28,4.34.46,8.43.89,11.82-1.05,10.73-6.15,2.48-23.49-3.55-36.15-2.07-4.36-3.87-8.12-4.57-10.72Z"/>
        <path class="cls-10" d="M318.13,48.18c-1.81-5.82-3.66-12.02-6-20.1-.56-1.93-.97-3.93-1.41-6.05-.99-4.82-2.02-9.81-4.97-13.82-2.48-3.36-5.7-5.41-8.52-6.98-.99-.55-1.96-.91-2.91-1.23h-2.67c.56.21,1.11.4,1.65.58,1.19.39,2.32.76,3.49,1.4,2.74,1.52,5.85,3.51,8.24,6.74,2.84,3.85,3.85,8.75,4.82,13.48.42,2.04.85,4.15,1.43,6.11,2.34,8.08,4.19,14.29,6,20.11.74,2.38,2.31,5.51,4.13,9.13,4.4,8.76,9.87,19.66,5.99,25.29-1.65,2.4-3.96,3.26-7.29,4.29l-.12.04c-.91.28-1.86.58-2.84.9-3.69,1.22-8,2.14-12.56,3.12-3.18.68-6.47,1.38-9.61,2.21-3.46.9-6.54,1.9-9.15,2.97-12,4.92-21.09,11.18-25.6,17.63-1.37,1.95-2.38,3.91-3.35,5.81-1.75,3.42-3.41,6.65-7.09,9.94-4.1,3.64-10.29,6.34-16.38,8.71-19.25,7.51-34.41,16.56-45.05,26.9-3.7,3.62-6.24,7.72-8.7,11.69-1.93,3.11-3.92,6.32-6.45,9.27-2.31,2.71-5.44,4.84-8.46,6.9-2.56,1.74-5.21,3.55-7.32,5.68-2.07,2.1-3.44,4.54-4.76,6.9-2.52,4.51-4.9,8.78-11.94,9.75-6.61.92-12.22,2.21-17.67,4.06-5.12,1.74-10.31,4.19-15.87,7.49-7.91,4.69-14.63,8.21-21.71,10.14-6.68,1.82-13.36,2.15-20.4,1.01-3.32-.55-6.62-1.39-9.8-2.21-2.94-.75-5.98-1.54-8.93-2.05-8.64-1.49-16.56-1-24.59-.31-2.14.18-4.1.41-6,.62-5.92.67-10.69,1.2-15.76-.05v.88c5.21,1.23,10.11.68,15.86.03,1.89-.21,3.85-.44,5.97-.62,7.97-.68,15.82-1.18,24.35.3,2.92.5,5.81,1.25,8.86,2.03,3.21.82,6.52,1.68,9.88,2.23,7.18,1.16,13.98.82,20.8-1.03,7.18-1.95,13.96-5.5,21.94-10.23,5.5-3.26,10.64-5.69,15.7-7.41,5.39-1.83,10.94-3.11,17.49-4.02,7.49-1.04,9.97-5.49,12.6-10.2,1.29-2.31,2.62-4.7,4.62-6.72,2.05-2.08,4.54-3.78,7.19-5.57,3.07-2.09,6.25-4.25,8.63-7.05,2.57-2.99,4.58-6.24,6.53-9.37,2.43-3.93,4.95-7.99,8.57-11.53,10.56-10.26,25.61-19.24,44.75-26.71,6.16-2.4,12.45-5.14,16.65-8.88,3.8-3.4,5.57-6.85,7.28-10.19.96-1.87,1.95-3.8,3.29-5.7,4.35-6.22,13.54-12.53,25.21-17.32,2.57-1.06,5.61-2.04,9.04-2.93,3.12-.82,6.4-1.52,9.57-2.2,4.59-.98,8.92-1.91,12.66-3.14.97-.32,1.92-.61,2.82-.89l.12-.04c3.41-1.05,5.96-2,7.77-4.63,4.16-6.04-1.44-17.19-5.93-26.14-1.8-3.59-3.36-6.69-4.08-9Z"/>
        <path class="cls-14" d="M285.55,49.3c-2.99-7.75-6.02-15.49-9.04-23.23-2.16-5.51-4.31-11.03-6.45-16.54-1.34-3.47-2.67-6.71-4.38-9.52h-1.05c1.81,2.86,3.2,6.21,4.59,9.82,2.14,5.52,4.3,11.03,6.45,16.55,3.02,7.74,6.05,15.48,9.04,23.22.96,2.49,2.78,5.48,4.7,8.64,4.6,7.57,9.82,16.14,6.48,22.38-2.84,5.3-13.17,7.33-19.34,8.55-.79.16-1.53.3-2.19.44-8.46,1.78-17.38,2.44-26,3.08-9.8.72-19.92,1.47-29.43,3.87-17.69,4.45-33.07,13.9-42.19,25.91-3.05,4.02-4.34,8.74-5.58,13.3-.97,3.57-1.98,7.26-3.82,10.56-1.7,3.04-4.57,5.21-7.35,7.3-2.36,1.77-4.79,3.61-6.46,5.96-1.72,2.43-2.3,5.39-2.86,8.25-1.03,5.25-1.94,9.79-9.55,9.55-12.08-.37-21.52-.02-32.91,7.83-1.23.85-2.47,1.72-3.72,2.6-10.86,7.63-22.09,15.53-34.94,14.24-6.09-.61-11.94-3.36-17.59-6.01-7.54-3.54-15.33-7.19-23.58-5.6-4.53.88-8.75,3.29-12.83,5.63-5.22,2.99-10.2,5.84-15.54,5.47v.86c5.63.34,10.89-2.66,16-5.59,4.01-2.3,8.17-4.67,12.55-5.52,7.96-1.54,15.27,1.89,23.01,5.53,5.72,2.68,11.64,5.46,17.89,6.09,13.19,1.33,24.56-6.67,35.56-14.4,1.25-.88,2.49-1.75,3.72-2.6,11.16-7.7,20.45-8.04,32.36-7.67,8.38.27,9.45-5.09,10.46-10.26.55-2.78,1.11-5.65,2.72-7.92,1.58-2.24,3.86-3.95,6.27-5.76,2.85-2.15,5.8-4.37,7.59-7.57,1.89-3.39,2.91-7.13,3.9-10.75,1.22-4.49,2.48-9.13,5.43-13.01,9-11.86,24.2-21.18,41.7-25.58,9.43-2.37,19.52-3.12,29.27-3.84,8.65-.64,17.6-1.3,26.13-3.09.66-.14,1.39-.28,2.18-.44,6.74-1.33,16.92-3.33,19.95-9,3.56-6.66-1.79-15.46-6.51-23.22-1.9-3.13-3.7-6.08-4.64-8.51Z"/>
        <path class="cls-5" d="M225.88,24.61c-1.25-3.13-2.72-6.48-4.48-10.23-1.85-3.96-4.11-8.46-7.6-11.72-.65-.61-1.34-1.17-2.05-1.66-.51-.36-1.04-.68-1.58-.99h-1.8c.98.52,1.95,1.06,2.85,1.69.67.47,1.33,1,1.95,1.58,3.38,3.15,5.59,7.57,7.41,11.46,1.76,3.74,3.22,7.07,4.46,10.18l.25.63c3.02,7.54,6.14,15.33,6.16,22.45.01,5.15-.46,8.63-1.12,13.46-.43,3.17-1.27,6.81-4.22,9.77-1.9,1.9-4.93,3.46-8.78,4.49-2.65.71-5.42,1.29-8.1,1.85-2.36.5-4.6.97-6.5,1.47-3.81,1.02-7.54,2.03-11.14,3.22-3.92,1.28-6.43,3.31-8.26,4.79-.39.31-.74.6-1.06.84-1.28.96-2.34,1.5-3.35,2.01-.43.22-.86.44-1.3.68-.76.43-1.39,1.07-2.11,1.81-.78.8-1.75,1.8-3.22,2.86-2.62,1.89-5.66,3.81-8.87,5.85-7.47,4.73-15.93,10.1-22.16,16.94-1.94,2.14-3.23,4.39-4.23,6.31-.49.92-.94,1.85-1.39,2.77-1.28,2.61-2.49,5.07-4.31,7.3-1.65,2.01-4.12,3.37-6.51,4.69-1.93,1.07-3.93,2.17-5.42,3.6-1.55,1.48-2.35,3.31-3.12,5.08-1.42,3.28-2.65,6.11-8.45,5.69-9.6-.69-17.68-.82-26.89,4.2-1.84,1-3.73,2.08-5.56,3.13-4.04,2.31-8.21,4.69-12.45,6.62-5.07,2.31-9.33,3.47-13.38,3.62-4.6.18-8.98-.94-13.22-2.02-5.79-1.48-11.78-3.01-18.2-1.12-1.51.44-3.06,1.08-4.9,2.02-1.5.76-3,1.62-4.45,2.45-2.97,1.71-5.85,3.35-8.79,4.26v.89c3.19-.93,6.25-2.68,9.25-4.4,1.44-.83,2.93-1.68,4.41-2.43,1.79-.91,3.29-1.53,4.74-1.95,6.18-1.81,11.78-.38,17.71,1.13,4.3,1.1,8.76,2.23,13.48,2.05,4.17-.16,8.54-1.34,13.72-3.71,4.27-1.95,8.46-4.34,12.52-6.66,1.83-1.04,3.72-2.12,5.55-3.12,8.99-4.9,16.93-4.77,26.38-4.09,6.44.46,7.92-2.93,9.35-6.22.73-1.69,1.49-3.44,2.92-4.8,1.41-1.35,3.27-2.37,5.24-3.46,2.46-1.36,5.01-2.77,6.76-4.91,1.89-2.31,3.18-4.93,4.42-7.46.45-.91.9-1.83,1.38-2.75.98-1.87,2.23-4.06,4.11-6.13,6.14-6.75,14.55-12.08,21.98-16.78,3.23-2.05,6.27-3.98,8.92-5.88,1.53-1.1,2.53-2.13,3.34-2.96.7-.72,1.26-1.29,1.91-1.66.42-.24.84-.45,1.26-.66,1.05-.53,2.14-1.09,3.49-2.1.33-.25.69-.54,1.09-.86,1.77-1.44,4.2-3.41,7.97-4.64,3.58-1.18,7.29-2.19,11.09-3.2,1.88-.5,4.1-.97,6.45-1.46,2.69-.57,5.47-1.15,8.15-1.87,4-1.08,7.17-2.71,9.18-4.72,3.13-3.14,4.01-6.94,4.46-10.25.66-4.86,1.14-8.36,1.13-13.57-.02-7.28-3.17-15.15-6.22-22.76l-.25-.63Z"/>
        <path class="cls-3" d="M172.73,19.22c-1.49-2.49-3.83-6.15-6.97-9.08-.53-.5-1.08-.97-1.63-1.4-1.02-.8-2.11-1.51-3.17-2.2-1.28-.84-2.6-1.7-3.78-2.71-1.38-1.18-2.52-2.48-3.52-3.83h-1.09c1.11,1.58,2.39,3.09,4.01,4.48,1.22,1.04,2.57,1.92,3.87,2.77,1.04.68,2.12,1.38,3.11,2.16.53.41,1.06.87,1.57,1.35,3.06,2.86,5.35,6.44,6.81,8.89,1.72,2.86,3.06,5.49,4.12,8.04,2.29,5.53,4.53,13.26,2.19,18.67-1.55,3.59-4.41,4.76-7.43,6.01-1.6.66-3.26,1.35-4.79,2.41-1.08.76-2.14,1.6-3.25,2.48-1.94,1.55-3.96,3.15-6.43,4.56-2.87,1.64-6.29,2.82-9.9,3.42-5.29.87-10.75,1.77-15.33,3.21-4.24,1.34-7.89,2.87-11.16,4.69-4.67,2.58-5.25,7.79-3.87,10.41,1.08,2.05,2.82,2.9,4.51,3.73.4.2.79.39,1.18.6,2.66,1.47,3.93,3.5,3.88,6.22-3.6,5.88-13.03,13.94-19.82,19.5-1.28,1.05-2.39,2.09-3.46,3.1l-.87.82c-1.96,1.83-3.8,3.57-6.11,4.94-1.69,1.01-3.87,1.57-5.97,2.11-1.46.37-2.84.73-4.06,1.22-1.3.53-2.26,1.21-3.19,1.87-1.89,1.35-3.51,2.51-7.61,1.91-7.23-1.07-13.79-1.76-20.85.56-4.11,1.35-8.57,3.18-14.46,5.93-3.37,1.57-6.56,3.06-9.74,4.02-3.04.92-5.9,1.37-8.68,1.8-4.1.64-8.33,1.3-12.98,3.51-1.25.6-2.47,1.3-3.5,1.9-.5.29-1,.59-1.5.89-.95.57-1.91,1.13-2.87,1.67v1c1.13-.62,2.24-1.28,3.35-1.94.5-.3,1-.59,1.5-.88,1.01-.59,2.21-1.28,3.43-1.86,4.52-2.15,8.51-2.77,12.72-3.43,2.8-.44,5.7-.89,8.8-1.83,3.24-.98,6.46-2.48,9.87-4.07,5.85-2.73,10.28-4.55,14.35-5.89,6.88-2.26,13.06-1.61,20.42-.52,4.46.66,6.32-.67,8.28-2.07.88-.63,1.8-1.28,3-1.77,1.17-.47,2.52-.82,3.94-1.18,2.17-.56,4.4-1.13,6.21-2.21,2.39-1.42,4.27-3.18,6.26-5.05l.87-.82c1.06-1,2.15-2.03,3.41-3.06,6.88-5.63,16.45-13.81,20.08-19.82l.06-.09v-.11c.1-3.12-1.31-5.45-4.33-7.11-.4-.22-.8-.42-1.21-.62-1.63-.8-3.16-1.56-4.12-3.35-1.23-2.32-.68-6.95,3.52-9.27,3.21-1.79,6.81-3.3,10.99-4.61,4.52-1.42,9.95-2.32,15.21-3.18,3.72-.62,7.25-1.84,10.21-3.52,2.54-1.45,4.57-3.07,6.55-4.64,1.1-.88,2.15-1.71,3.21-2.45,1.45-1.01,3.06-1.67,4.62-2.32,3.06-1.26,6.21-2.56,7.91-6.47,2.46-5.68.17-13.65-2.18-19.33-1.07-2.59-2.44-5.25-4.17-8.15Z"/>
        <path class="cls-9" d="M117.74,17.62c-7.3-6.83-15.57-14.58-26.19-17.45-.24-.06-.48-.12-.72-.18h-4.53c1.7.26,3.38.57,5,1.01,10.4,2.81,18.58,10.47,25.8,17.23,3.69,3.45,7.87,7.37,9.99,12.23,1.87,4.27,2.05,10.56-1.96,14.29-3.81,3.54-9.24,3.43-14.99,3.3-2.8-.06-5.69-.12-8.4.28-4.31.63-8.24,1.91-12.05,3.15-4.67,1.52-9.08,2.95-14.14,3.31-11.85.84-20.25,3.69-27.23,9.25-1.73,1.38-2.68,3.47-2.66,5.88.02,3.3,1.77,6.79,4.47,8.89,3.69,2.88,8.42,3.95,12.99,4.98.97.22,1.93.44,2.89.67,7.1,1.75,11.41,4.55,13.19,8.55,1.59,3.58.49,6.88-.72,9.02-2.38,4.22-7.09,7.47-12,8.29-7.61,1.27-15.26-1.32-22.65-3.83-.84-.28-1.67-.56-2.5-.84-7.69-2.55-17.57-4.98-25.74-1-4.99,2.43-8.43,6.8-11.75,11.03-1.24,1.58-2.5,3.19-3.86,4.7v1.3c1.63-1.75,3.12-3.63,4.57-5.48,3.41-4.34,6.64-8.45,11.44-10.78,7.87-3.83,17.52-1.45,25.05,1.05.83.27,1.66.56,2.49.84,7.5,2.54,15.26,5.17,23.1,3.86,5.17-.86,10.13-4.29,12.63-8.73,1.84-3.26,2.1-6.73.75-9.78-1.9-4.26-6.41-7.22-13.79-9.04-.96-.24-1.93-.46-2.9-.68-4.48-1.01-9.1-2.06-12.64-4.82-2.5-1.95-4.12-5.17-4.14-8.22,0-1.52.39-3.66,2.34-5.21,6.83-5.43,15.07-8.23,26.72-9.05,5.18-.37,9.85-1.88,14.36-3.35,3.77-1.23,7.67-2.49,11.9-3.11,2.63-.39,5.48-.32,8.24-.27,5.68.12,11.55.24,15.63-3.54,4.34-4.03,4.22-10.57,2.17-15.25-2.2-5.02-6.44-9-10.19-12.51Z"/>
      </g>
      <g class="cls-15">
        <path class="cls-12" d="M395.58,0c-1.15,10.12-2.99,20.16-6.04,29.94-7.79,24.93-22.73,44-42.06,53.69-12.21,6.12-26.11,8.47-39.55,10.75-6.44,1.09-13.1,2.22-19.52,3.75-24.6,5.86-41.66,19.13-45.63,35.49-1.48,6.09-1.26,12.71-1.05,19.1.35,10.44.67,20.31-5.87,27.81-5.89,6.76-15.85,9.48-25.49,12.11-12.43,3.4-24.18,6.6-26.34,18.01-1.19,6.28,1.69,12.22,4.47,17.96,2.21,4.57,4.5,9.3,4.78,14.22.96,16.82-19.54,26.21-37.39,29.14l-.36.06c-14.66,2.41-32.36,5.32-41.44,15.97h1.18c9.03-9.96,26.17-12.78,40.4-15.12l.36-.06c18.21-2.99,39.12-12.65,38.13-30.04-.29-5.08-2.62-9.89-4.87-14.54-2.85-5.88-5.54-11.44-4.4-17.44,2.06-10.88,13.55-14.01,25.7-17.33,9.77-2.67,19.87-5.43,25.93-12.39,6.76-7.76,6.43-17.78,6.08-28.4-.21-6.34-.43-12.89,1.02-18.87,3.89-16.04,20.7-29.06,44.97-34.85,6.39-1.52,13.03-2.65,19.46-3.73,13.51-2.29,27.48-4.65,39.81-10.83,19.56-9.8,34.65-29.06,42.51-54.21,3.08-9.87,4.93-20,6.09-30.19h-.9Z"/>
        <path class="cls-11" d="M327.67,0h-.9c.09,1.46.21,2.9.34,4.3.24,2.51.48,5.11.48,7.73,0,9.81-1.96,18.99-5.81,27.3-7.93,17.12-19.03,31.07-32.11,40.36-1.31.93-2.64,1.82-3.95,2.64-8.64,5.42-17.69,8.86-26.44,12.2-5.02,1.91-10.2,3.89-15.12,6.18-3.34,1.56-6.52,3.31-9.46,5.2-11.73,7.49-19.05,17.03-21.15,27.59-1,5.02-.87,10.39-.74,15.59.21,8.52.4,16.57-3.99,23.08-3.91,5.81-10.47,9.02-16.83,12.13-5.92,2.89-11.5,5.62-14.94,10.27-1.56,2.1-2.52,4.39-2.95,7.01-.78,4.77.82,9.33,2.36,13.74,1.5,4.29,2.92,8.33,2.33,12.54-1.69,12.12-16.37,15.28-24.97,16.09-5.74.54-11.9.25-17.69-.13-4.1-.27-10.29-.52-16.62.54-13.65,2.32-24.67,9.66-31.05,20.69-2.3,3.98-3.77,8.09-5.2,12.05-1.23,3.42-2.38,6.64-3.98,9.58-.24.45-.51.89-.77,1.33h1.04c.18-.31.36-.61.53-.92,1.63-2.99,2.8-6.25,4.04-9.7,1.41-3.93,2.87-8,5.13-11.92,6.24-10.79,17.05-17.99,30.42-20.26,6.24-1.04,12.35-.8,16.4-.53,5.83.39,12.03.67,17.84.13,8.86-.83,23.99-4.12,25.77-16.83.62-4.41-.9-8.74-2.37-12.93-1.51-4.31-3.07-8.77-2.32-13.33.41-2.48,1.33-4.65,2.8-6.64,3.31-4.47,8.8-7.16,14.62-10,6.46-3.16,13.14-6.42,17.17-12.43,4.54-6.73,4.33-15.29,4.13-23.57-.12-5.15-.25-10.48.73-15.41,2.06-10.33,9.24-19.67,20.77-27.03,2.9-1.86,6.05-3.59,9.35-5.14,4.89-2.28,9.83-4.16,15.06-6.15,8.79-3.35,17.89-6.81,26.6-12.28,1.33-.83,2.67-1.73,3.99-2.67,13.2-9.38,24.4-23.45,32.39-40.71,3.9-8.42,5.88-17.72,5.89-27.65,0-2.66-.24-5.27-.48-7.8-.13-1.38-.25-2.8-.34-4.23Z"/>
        <path class="cls-13" d="M259.32,12.62c-.65-2.35-1.32-4.79-1.62-7.3-.22-1.85-.21-3.64.02-5.31h-.9c-.22,1.71-.23,3.53,0,5.41.31,2.58.99,5.04,1.64,7.42.66,2.39,1.34,4.87,1.63,7.42,1.24,10.82-.79,20.4-6.04,28.46-7.83,12.03-18.71,22.31-27.32,29.91-.93.82-1.85,1.63-2.76,2.43-1.64,1.43-3.24,2.81-4.8,4.16-7.31,6.32-13.62,11.77-19.29,18.15-1.66,1.87-3.28,3.85-4.81,5.89-6.14,8.14-9.65,16.03-10.73,24.12-.52,3.94-.48,8.07-.44,12.07.07,6.61.13,12.86-2.11,18.38-1.96,4.87-5.2,8.52-8.33,12.05-3.05,3.44-5.93,6.68-7.75,10.96-.78,1.85-1.29,3.7-1.53,5.65-.39,3.14.05,6.21.46,9.19.55,3.94,1.07,7.66-.31,11.17-4.11,10.4-18.81,10.9-30.15,8.16-3.48-.84-7.08-1.99-10.57-3.11-2.37-.76-4.82-1.55-7.25-2.24-6.49-1.88-11.97-2.49-17.25-1.91-11.85,1.32-22.11,8.26-32.31,21.87-1.4,1.87-2.72,3.75-3.99,5.57-3.65,5.2-7.09,10.12-11.59,13.6-1.21.94-2.59,1.82-4.2,2.71-3.27,1.79-6.85,3-10.23,4.04-13.98,4.3-26.27,6.73-36.77,7.29v.86c10.6-.56,22.98-3.01,37.04-7.33,3.43-1.06,7.07-2.28,10.4-4.11,1.66-.91,3.07-1.82,4.32-2.79,4.61-3.56,8.09-8.53,11.78-13.79,1.27-1.81,2.59-3.69,3.98-5.55,10.04-13.39,20.1-20.23,31.68-21.52,5.16-.56,10.53.04,16.9,1.88,2.42.69,4.86,1.47,7.22,2.23,3.5,1.12,7.12,2.28,10.63,3.13,11.7,2.82,26.89,2.24,31.21-8.69,1.47-3.72.93-7.54.37-11.6-.41-2.92-.83-5.94-.46-8.97.24-1.87.72-3.64,1.47-5.43,1.76-4.15,4.59-7.35,7.6-10.73,3.18-3.58,6.48-7.29,8.49-12.3,2.3-5.68,2.23-12.3,2.17-18.7-.04-3.97-.08-8.08.43-11.96,1.06-7.95,4.51-15.71,10.57-23.72,1.52-2.02,3.13-3.98,4.77-5.83,5.63-6.33,11.93-11.77,19.21-18.07,1.56-1.35,3.16-2.73,4.8-4.16.91-.8,1.83-1.61,2.76-2.43,8.64-7.64,19.58-17.97,27.47-30.09,5.36-8.23,7.44-17.99,6.17-29.01-.3-2.62-.99-5.12-1.65-7.55Z"/>
        <path class="cls-4" d="M190.65,20.62c-1.1-2.47-2.24-5.03-2.79-7.73-.85-4.21-.07-8.17,2.14-10.88.61-.75,1.33-1.41,2.12-2h-1.39c-.51.45-1,.94-1.43,1.47-2.37,2.9-3.22,7.12-2.31,11.58.57,2.79,1.73,5.39,2.85,7.91,1.07,2.41,2.18,4.89,2.75,7.52,2.7,12.41.59,22.38-6.25,29.61-3.01,3.18-6.66,5.87-10.18,8.48-4.42,3.27-9,6.64-12.38,11.03-7.3,9.45-8.08,21.51-8.3,35.14l-1.08,66.45c-.12,7.3-.54,13.73-4.48,18.65-7.77,9.69-23.8,6.93-35.41.28-2.27-1.3-4.57-2.74-6.8-4.12-9.03-5.63-18.37-11.45-29-10.85-13.12.74-21.8,10.22-30.98,20.25-7.23,7.9-14.71,16.07-24.56,19.56-6.03,2.14-12.57,2.37-18.9,2.59-1.39.05-2.81.13-4.25.23v.86c1.45-.1,2.88-.18,4.28-.23,6.39-.23,13.01-.46,19.17-2.65,10.06-3.56,17.61-11.82,24.92-19.8,9.06-9.9,17.62-19.25,30.36-19.96,10.35-.57,19.55,5.16,28.46,10.71,2.23,1.39,4.55,2.83,6.83,4.14,11.93,6.84,28.47,9.61,36.57-.49,4.45-5.54,4.58-13.41,4.67-19.16l1.08-66.45c.22-13.48.98-25.39,8.12-34.64,3.31-4.29,7.83-7.63,12.21-10.86,3.56-2.63,7.24-5.34,10.3-8.58,7.05-7.45,9.23-17.67,6.47-30.37-.59-2.71-1.72-5.24-2.81-7.69Z"/>
        <path class="cls-1" d="M160.25,0c-1.96,3.63-4.52,6.76-7.64,9.25-.31.24-.62.48-.93.73-1.47,1.13-2.98,2.3-4.05,3.98-.68,1.07-1.14,2.32-1.37,3.73-.26,1.62-.21,3.43.14,5.22.41,2.05,1.15,3.98,1.88,5.86.76,1.96,1.54,3.98,1.9,6.1,1.63,9.45-.24,17.02-5.55,22.52-2.45,2.54-5.42,4.65-8.3,6.7-3.19,2.27-6.49,4.62-9.08,7.55-6.05,6.85-7.55,15.62-8.65,24.76-.21,1.72-.41,3.44-.6,5.18-.96,8.74-1.64,17.9-2.29,26.75-.41,5.65-.84,11.48-1.34,17.14-.39,4.36-.89,9.79-4.28,13.52-7.24,7.96-20.78,3.79-26.26,1.62-1.09-.43-2.17-.89-3.22-1.38-1.07-.49-2.14-1-3.2-1.5-6.3-2.98-12.82-6.07-18.99-6.34-2.25-.1-4.37.12-6.48.66-2.63.69-5.17,1.89-7.96,3.8-3.99,2.72-7.79,6.08-11.82,9.64-5.33,4.71-10.84,9.59-16.78,12.78-3.03,1.64-5.96,2.74-8.96,3.38-2.08.44-4.24.64-6.42.72v.86c2.24-.08,4.46-.29,6.61-.75,3.09-.66,6.1-1.79,9.21-3.47,6.03-3.24,11.58-8.15,16.95-12.9,4-3.54,7.78-6.88,11.73-9.57,2.71-1.85,5.15-3.01,7.68-3.67,2.01-.52,4.04-.74,6.2-.64,5.98.27,12.41,3.31,18.63,6.25,1.07.51,2.14,1.01,3.21,1.51,1.07.49,2.17.96,3.27,1.4,5.66,2.23,19.65,6.53,27.28-1.85,3.59-3.95,4.1-9.53,4.5-14.02.5-5.67.93-11.51,1.34-17.16.65-8.85,1.32-18,2.28-26.72.19-1.74.39-3.46.6-5.17,1.09-9,2.56-17.63,8.45-24.3,2.52-2.86,5.78-5.18,8.93-7.42,2.91-2.07,5.91-4.21,8.42-6.81,5.51-5.7,7.45-13.53,5.78-23.25-.38-2.19-1.18-4.26-1.95-6.26-.71-1.84-1.44-3.74-1.84-5.72-.34-1.7-.39-3.41-.14-4.93.21-1.29.63-2.44,1.24-3.41.98-1.55,2.43-2.67,3.84-3.75.32-.24.63-.49.94-.73,3.32-2.65,6.03-6.02,8.06-9.92h-1Z"/>
        <path class="cls-6" d="M108.23,23.89c.14-.23.28-.46.41-.69,2.73-4.75,3.52-10.95,2.28-17.92-.24-1.31-.55-2.63-.92-3.93-.13-.45-.28-.9-.43-1.35h-.94c.18.52.35,1.05.51,1.58.37,1.27.67,2.57.9,3.85,1.21,6.78.45,12.78-2.18,17.36-.13.23-.27.45-.4.68-.54.91-1.11,1.85-1.48,3.04-.25.78-.39,1.67-.42,2.65-.04,1.14.06,2.35.31,3.62.23,1.21.56,2.38.88,3.51.47,1.67.92,3.26,1.07,4.95.58,6.48-1.05,11.67-4.84,15.44-1.97,1.96-4.37,3.53-6.69,5.05-1.87,1.22-3.8,2.48-5.48,3.94-4.85,4.21-7.2,9.38-9.01,14.34-.39,1.07-.76,2.13-1.1,3.18-1.71,5.36-2.84,11.33-3.93,17.1-.72,3.81-1.46,7.74-2.36,11.44-.79,3.23-1.69,6.3-4.07,8.42-5.49,4.87-14.59,2.91-20.96,1.01-.89-.26-1.77-.53-2.64-.8-5.89-1.79-12.6-3.54-17.64-1.61-1.35.52-2.6,1.25-3.95,2.3-1.38,1.08-2.62,2.38-3.92,3.77l-.67.71c-5.84,6.12-13.47,11.02-20.53,13.29v.9c7.29-2.27,15.18-7.3,21.19-13.61l.67-.71c1.29-1.36,2.5-2.64,3.83-3.68,1.27-.99,2.45-1.68,3.71-2.17,4.77-1.83,11.29-.11,17.04,1.64.87.27,1.76.54,2.65.8,6.58,1.96,16.01,3.98,21.84-1.2,2.57-2.28,3.52-5.49,4.34-8.85.91-3.72,1.65-7.66,2.37-11.48,1.09-5.75,2.21-11.69,3.91-17,.33-1.03.7-2.09,1.08-3.14,1.78-4.85,4.07-9.91,8.77-13.98,1.63-1.41,3.54-2.66,5.38-3.86,2.36-1.54,4.8-3.14,6.83-5.16,3.98-3.96,5.69-9.38,5.09-16.12-.16-1.77-.64-3.46-1.1-5.1-.32-1.12-.64-2.27-.87-3.44-.23-1.21-.33-2.37-.29-3.44.03-.9.16-1.71.38-2.42.34-1.09.88-1.99,1.4-2.85Z"/>
        <path class="cls-7" d="M65.71,40.44c-1.73-5.91-5.96-10.75-9.45-14.32-6.76-6.89-12.96-10.93-19.51-12.7-7.01-1.9-16.56-.96-22.1,5.41-.48.55-.92,1.14-1.35,1.7-.95,1.25-1.84,2.42-3.07,3.27-3.04,2.1-7.2,1.43-10.22-.2v.98c3.24,1.59,7.53,2.14,10.74-.08,1.35-.93,2.33-2.22,3.27-3.47.42-.56.86-1.13,1.32-1.66,5.29-6.08,14.45-6.96,21.17-5.13,6.39,1.73,12.46,5.69,19.1,12.46,3.42,3.49,7.57,8.23,9.24,13.96,1.7,5.82.31,11.81-3.54,15.26-2.44,2.18-5.72,3.31-8.9,4.39-3.14,1.07-6.38,2.18-8.92,4.31-2.52,2.12-4.15,5.06-5.72,7.9-1.95,3.53-3.79,6.86-7.18,8.68-4.01,2.15-8.9,1.43-13.62.73-.71-.11-1.42-.21-2.13-.31-3.36-.45-11.36-.91-14.84,4.11v1.82c.14-.32.28-.64.47-.94,3.03-5.06,10.98-4.58,14.25-4.13.7.09,1.4.2,2.11.3,4.87.72,9.92,1.47,14.2-.82,3.63-1.95,5.61-5.55,7.54-9.03,1.53-2.77,3.11-5.64,5.51-7.65,2.42-2.03,5.58-3.11,8.63-4.15,3.26-1.12,6.63-2.27,9.21-4.57,4.1-3.67,5.59-10,3.79-16.13Z"/>
      </g>
    </g>
  </g>
</svg>